<?xml version="1.0" encoding="UTF-8"?>
<svg id="Layer_2" data-name="Layer 2" xmlns="http://www.w3.org/2000/svg" width="267.41" height="269.02" viewBox="0 0 267.41 269.02">
  <defs>
    <style>
      .cls-1 {
        stroke-width: 5px;
      }

      .cls-1, .cls-2, .cls-3, .cls-4 {
        stroke: #000;
        stroke-miterlimit: 10;
      }

      .cls-2 {
        fill: #c1b4d8;
      }

      .cls-2, .cls-4 {
        stroke-width: 1.5px;
      }

      .cls-5 {
        fill: #fff;
      }

      .cls-4 {
        fill: #9087c0;
      }
    </style>
  </defs>
  <g id="Layer_1-2" data-name="Layer 1">
    <g>
      <ellipse class="cls-5" cx="133.7" cy="134.51" rx="133.7" ry="134.51"/>
      <path class="cls-5" d="M57.63,122.24c-1.55,3.35-2.83,6.17-3.22,10.07-.41,4.16.32,8.39,1.61,11.28,2.86,6.38,8.59,6.47,20.94,12.89,13.37,6.94,23.82,15.74,30.61,17.82,5.44,1.66,11.28,3.12,11.28,3.12s21.93,4.27,45.1-4.92c3.31-1.31,5.72-2.56,7.64-3.91,5.65-4,7.41-9.02,31.02-24.81,4.89-3.27,13.6-8.93,14.5-17.95.17-1.66.19-4.75-1.61-8.98-2.56-6-19.97-40.4-59.6-50.26-5.17-1.29-43.25-10.77-66.05,10.77-10.26,9.69-13.03,21.51-25.77,34.11-.63.63-3.66,4.77-6.44,10.77Z"/>
      <ellipse class="cls-1" cx="134.13" cy="97.01" rx="70.07" ry="56.38"/>
      <path class="cls-4" d="M49.34,114.38c2.54-10.05,5.77-20.77,9.88-31.93,1.57-4.26,3.19-8.37,4.83-12.31,1.77-4.53,4.33-10.03,8.05-15.83,3.86-6.02,7.88-10.65,11.28-14.07,4.57-2.45,9.96-4.92,16.11-7.04,9.11-3.13,17.38-4.61,24.16-5.28,8.72-1.07,19.7-1.54,32.22,0,9.25,1.13,17.37,3.12,24.16,5.28,4.39,2.36,10.27,6.19,16.11,12.31,7.97,8.36,12.26,17.21,14.5,22.87,6.25,14.82,12.5,29.64,18.74,44.45l-5.86,18.01v-14.5s-12.89-16.11-12.89-16.11l-30.07-29.03-50.47-12.86-24.16,4.83-17.72,9.67-17.24,26.39-21.64,15.14Z"/>
      <path class="cls-2" d="M231.59,115.84c-.87-2.8-2.39-4.53-3.22-5.45-33.8-37.5-50.7-56.26-78.93-60-26.97-3.58-62.17,5.56-78.93,29.09-8.62,12.09-15.39,32.22-30.61,41.82-1.74,1.09-7.14,4.29-9.67,10.91-2.16,5.66-2.24,13.85,1.61,18.18,3.47,3.91,7.7,1.92,14.5,3.64,9.9,2.5,15.57,10.39,19.33,14.55,13.11,14.46,44.98,29.65,74.1,27.27,22.38-1.83,37.71-13.59,53.16-25.45,6.73-5.16,44.64-35.18,38.66-54.54ZM217.09,125.97c-.9,9.02-9.6,14.68-14.5,17.95-23.61,15.79-25.37,20.81-31.02,24.81-1.92,1.36-4.33,2.6-7.64,3.91-23.18,9.19-45.1,4.92-45.1,4.92,0,0-5.84-1.46-11.28-3.12-6.78-2.08-17.24-10.88-30.61-17.82-12.36-6.41-18.09-6.51-20.94-12.89-1.29-2.89-2.02-7.11-1.61-11.28.39-3.9,1.67-6.73,3.22-10.07,2.79-6,5.81-10.14,6.44-10.77,12.75-12.59,15.52-24.41,25.77-34.11,22.79-21.54,60.88-12.06,66.05-10.77,39.63,9.86,57.04,44.26,59.6,50.26,1.81,4.23,1.78,7.31,1.61,8.98Z"/>
      <g>
        <path class="cls-3" d="M199.37,188.84c2.25-1.82,8.4-7.31,9.67-16.11.35-2.42.26-4.61,0-6.44,0-5.3-4.36-9.67-9.67-9.67s-9.67,4.36-9.67,9.67c1.65.9,5.51,3.28,8.05,8.05,3.51,6.58,2.02,12.96,1.61,14.5Z"/>
        <path class="cls-3" d="M125.54,193.67c1.49-6.9,7.75-11.66,14.5-11.28,6.2.35,11.55,4.97,12.89,11.28.44,5.8.54,12.29,0,19.33-1.4,18.2-6.51,33.02-11.28,43.49-.49-11.86-2.44-26.93-8.05-43.49-2.44-7.21-5.22-13.66-8.05-19.33Z"/>
        <path class="cls-3" d="M163.53,188.84c-1.92-4.06-.5-8.93,3.22-11.28,3.58-2.26,8.38-1.6,11.28,1.61,2.35,2.89,4.75,6.62,6.44,11.28,6.55,17.98-2.74,35.02-4.83,38.66.53-5.08,1.36-19.63-8.05-32.22-2.59-3.46-5.44-6.08-8.05-8.05Z"/>
        <path class="cls-3" d="M113.7,190.53c1.92-4.06.5-8.93-3.22-11.28-3.58-2.26-8.38-1.6-11.28,1.61-2.35,2.89-4.75,6.62-6.44,11.28-6.55,17.98,2.74,35.02,4.83,38.66-.53-5.08-1.36-19.63,8.05-32.22,2.59-3.46,5.44-6.08,8.05-8.05Z"/>
        <path class="cls-3" d="M79.47,201.84c-2.25-1.82-8.4-7.31-9.67-16.11-.35-2.42-.26-4.61,0-6.44,0-5.3,4.36-9.67,9.67-9.67s9.67,4.36,9.67,9.67c-1.65.9-5.51,3.28-8.05,8.05-3.51,6.58-2.02,12.96-1.61,14.5Z"/>
      </g>
      <g>
        <path class="cls-5" d="M109.24,121.85l-15.88-10.28c-.91-.59-1.47-1.61-1.47-2.69v-2.4c0-1.09.55-2.1,1.47-2.69l15.88-10.28c2.14-1.38,4.95.15,4.95,2.69h0c0,1.11-.57,2.14-1.51,2.72l-13.8,8.65v.23l13.8,8.65c.94.59,1.51,1.61,1.51,2.72h0c0,2.54-2.82,4.08-4.95,2.69Z"/>
        <path class="cls-5" d="M125.82,131.6l16.49-43.6c.49-1.29,1.73-2.15,3.11-2.15h0c2.32,0,3.93,2.32,3.11,4.5l-16.49,43.6c-.49,1.29-1.73,2.15-3.11,2.15h0c-2.32,0-3.93-2.32-3.11-4.5Z"/>
        <path class="cls-5" d="M160.16,119.16h0c0-1.11.57-2.13,1.51-2.72l13.8-8.65v-.23l-13.8-8.65c-.94-.59-1.51-1.61-1.51-2.72h0c0-2.55,2.82-4.08,4.95-2.7l15.87,10.28c.91.59,1.46,1.61,1.46,2.69v2.4c0,1.09-.55,2.1-1.46,2.69l-15.87,10.28c-2.14,1.38-4.95-.15-4.95-2.69Z"/>
      </g>
    </g>
  </g>
</svg>